<svg xmlns="http://www.w3.org/2000/svg" xmlns:xlink="http://www.w3.org/1999/xlink" width="500" zoomAndPan="magnify" viewBox="0 0 375 374.999991" height="500" preserveAspectRatio="xMidYMid meet" version="1.0"><defs><g/><clipPath id="76cfae0a73"><path d="M 99.542969 188 L 275.75 188 L 275.75 227.882812 L 99.542969 227.882812 Z M 99.542969 188 " clip-rule="nonzero"/></clipPath><clipPath id="dd5ec00a94"><path d="M 99.542969 54 L 170 54 L 170 198 L 99.542969 198 Z M 99.542969 54 " clip-rule="nonzero"/></clipPath><clipPath id="657f978bf2"><path d="M 170 47.882812 L 177 47.882812 L 177 199 L 170 199 Z M 170 47.882812 " clip-rule="nonzero"/></clipPath></defs><g clip-path="url(#76cfae0a73)"><path fill="#ffffff" d="M 184.726562 199.902344 C 183.140625 200.011719 181.539062 200.125 179.953125 200.222656 L 179.679688 200.238281 C 179.089844 200.269531 178.511719 200.316406 177.917969 200.351562 C 176.589844 200.429688 175.390625 200.507812 174.25 200.574219 C 172.378906 200.6875 170.9375 200.765625 169.574219 200.828125 C 169.558594 200.828125 169.558594 200.828125 169.542969 200.828125 L 169.460938 200.828125 C 169.285156 200.847656 169.109375 200.847656 168.933594 200.863281 L 168.070312 200.941406 L 168.070312 200.894531 C 145.324219 202.0625 122.273438 202.320312 99.53125 201.644531 L 118.269531 227.882812 L 247.066406 227.882812 L 275.722656 188.40625 C 245.738281 193.867188 215.128906 197.722656 184.726562 199.902344 Z M 184.726562 199.902344 " fill-opacity="1" fill-rule="nonzero"/></g><path fill="#ffffff" d="M 190.398438 133.753906 C 190.027344 158.421875 186.441406 181.394531 180.867188 195.417969 C 193.871094 187.511719 207.519531 182.515625 221.453125 180.5625 C 236.222656 178.496094 251.421875 179.8125 266.6875 184.46875 C 256.710938 126.710938 224.738281 79.261719 178.527344 53.488281 C 186.632812 75.5625 190.84375 103.882812 190.398438 133.753906 Z M 190.398438 133.753906 " fill-opacity="1" fill-rule="nonzero"/><g clip-path="url(#dd5ec00a94)"><path fill="#ffffff" d="M 135.730469 188.953125 C 146.910156 189.238281 158.074219 192.105469 168.132812 197.261719 L 169.941406 54 C 158.472656 77.613281 146.703125 101.527344 135.28125 124.691406 C 123.589844 148.417969 111.527344 172.894531 99.804688 197.066406 C 107.941406 192.96875 119.550781 188.933594 133.777344 188.933594 C 134.417969 188.9375 135.074219 188.9375 135.730469 188.953125 Z M 135.730469 188.953125 " fill-opacity="1" fill-rule="nonzero"/></g><g clip-path="url(#657f978bf2)"><path fill="#ffffff" d="M 176.476562 197.742188 L 176.476562 197.707031 L 174.570312 50.8125 L 174.570312 50.285156 L 174.539062 48.140625 C 174.523438 48.125 174.507812 48.109375 174.492188 48.09375 C 174.285156 47.964844 173.980469 47.882812 173.644531 47.882812 C 173.164062 47.882812 172.859375 48.042969 172.746094 48.140625 L 170.808594 198.042969 L 170.808594 198.078125 C 171.769531 198.027344 172.84375 197.964844 174.089844 197.882812 C 174.84375 197.835938 175.644531 197.789062 176.476562 197.742188 Z M 176.476562 197.742188 " fill-opacity="1" fill-rule="nonzero"/></g><g fill="#ffffff" fill-opacity="1"><g transform="translate(56.507128, 287.14728)"><g><path d="M 23.078125 -19.6875 L 18.734375 -19.6875 L 17.984375 -23.65625 C 17.472656 -23.976562 16.734375 -24.257812 15.765625 -24.5 C 14.804688 -24.738281 13.78125 -24.859375 12.6875 -24.859375 C 11.101562 -24.859375 9.875 -24.519531 9 -23.84375 C 8.132812 -23.175781 7.703125 -22.3125 7.703125 -21.25 C 7.703125 -20.269531 8.15625 -19.46875 9.0625 -18.84375 C 9.976562 -18.21875 11.546875 -17.550781 13.765625 -16.84375 C 16.960938 -15.957031 19.382812 -14.785156 21.03125 -13.328125 C 22.675781 -11.867188 23.5 -9.957031 23.5 -7.59375 C 23.5 -5.113281 22.519531 -3.15625 20.5625 -1.71875 C 18.601562 -0.289062 16.019531 0.421875 12.8125 0.421875 C 10.519531 0.421875 8.445312 0.0546875 6.59375 -0.671875 C 4.75 -1.398438 3.210938 -2.40625 1.984375 -3.6875 L 1.984375 -9.734375 L 6.484375 -9.734375 L 7.09375 -5.625 C 7.675781 -5.144531 8.46875 -4.75 9.46875 -4.4375 C 10.46875 -4.125 11.582031 -3.96875 12.8125 -3.96875 C 14.40625 -3.96875 15.613281 -4.289062 16.4375 -4.9375 C 17.269531 -5.59375 17.6875 -6.460938 17.6875 -7.546875 C 17.6875 -8.660156 17.289062 -9.554688 16.5 -10.234375 C 15.707031 -10.910156 14.328125 -11.546875 12.359375 -12.140625 C 8.929688 -13.128906 6.332031 -14.304688 4.5625 -15.671875 C 2.800781 -17.035156 1.921875 -18.90625 1.921875 -21.28125 C 1.921875 -23.625 2.914062 -25.539062 4.90625 -27.03125 C 6.894531 -28.519531 9.390625 -29.285156 12.390625 -29.328125 C 14.617188 -29.328125 16.644531 -28.988281 18.46875 -28.3125 C 20.300781 -27.632812 21.835938 -26.734375 23.078125 -25.609375 Z M 23.078125 -19.6875 "/></g></g></g><g fill="#ffffff" fill-opacity="1"><g transform="translate(97.452512, 287.14728)"><g><path d="M 0.8125 -3.484375 L 2.875 -3.78125 L 11.6875 -28.921875 L 17.625 -28.921875 L 26.359375 -3.78125 L 28.421875 -3.484375 L 28.421875 0 L 18.578125 0 L 18.578125 -3.484375 L 20.578125 -3.828125 L 19.3125 -7.8125 L 9.9375 -7.8125 L 8.65625 -3.828125 L 10.671875 -3.484375 L 10.671875 0 L 0.8125 0 Z M 11.296875 -12.078125 L 17.9375 -12.078125 L 14.6875 -22.265625 L 14.5625 -22.265625 Z M 11.296875 -12.078125 "/></g></g></g><g fill="#ffffff" fill-opacity="1"><g transform="translate(142.946451, 287.14728)"><g><path d="M 1.09375 -25.4375 L 1.09375 -28.921875 L 13.078125 -28.921875 L 13.078125 -25.4375 L 9.96875 -24.828125 L 9.96875 -4.078125 L 13.078125 -3.484375 L 13.078125 0 L 1.09375 0 L 1.09375 -3.484375 L 4.1875 -4.078125 L 4.1875 -24.828125 Z M 1.09375 -25.4375 "/></g></g></g><g fill="#ffffff" fill-opacity="1"><g transform="translate(173.3845, 287.14728)"><g><path d="M 1.109375 0 L 1.109375 -3.484375 L 4.1875 -4.078125 L 4.1875 -24.828125 L 1.109375 -25.4375 L 1.109375 -28.921875 L 13.09375 -28.921875 L 13.09375 -25.4375 L 10 -24.828125 L 10 -4.453125 L 18.15625 -4.453125 L 18.4375 -8.078125 L 22.859375 -8.078125 L 22.859375 0 Z M 1.109375 0 "/></g></g></g><g fill="#ffffff" fill-opacity="1"><g transform="translate(213.495654, 287.14728)"><g><path d="M 1.09375 -25.4375 L 1.09375 -28.921875 L 13.078125 -28.921875 L 13.078125 -25.4375 L 9.96875 -24.828125 L 9.96875 -4.078125 L 13.078125 -3.484375 L 13.078125 0 L 1.09375 0 L 1.09375 -3.484375 L 4.1875 -4.078125 L 4.1875 -24.828125 Z M 1.09375 -25.4375 "/></g></g></g><g fill="#ffffff" fill-opacity="1"><g transform="translate(243.933703, 287.14728)"><g><path d="M 30.671875 -28.921875 L 30.671875 -25.4375 L 27.578125 -24.828125 L 27.578125 0 L 21.796875 0 L 10.109375 -19.46875 L 10 -19.453125 L 10 -4.078125 L 13.09375 -3.484375 L 13.09375 0 L 1.109375 0 L 1.109375 -3.484375 L 4.1875 -4.078125 L 4.1875 -24.828125 L 1.109375 -25.4375 L 1.109375 -28.921875 L 10 -28.921875 L 21.671875 -9.453125 L 21.796875 -9.46875 L 21.796875 -24.828125 L 18.6875 -25.4375 L 18.6875 -28.921875 Z M 30.671875 -28.921875 "/></g></g></g><g fill="#ffffff" fill-opacity="1"><g transform="translate(291.632389, 287.14728)"><g><path d="M 25.09375 -3.21875 C 24.15625 -2.289062 22.785156 -1.453125 20.984375 -0.703125 C 19.179688 0.046875 16.898438 0.421875 14.140625 0.421875 C 10.234375 0.421875 7.054688 -0.882812 4.609375 -3.5 C 2.160156 -6.125 0.9375 -9.523438 0.9375 -13.703125 L 0.9375 -14.703125 C 0.9375 -19.035156 2.144531 -22.554688 4.5625 -25.265625 C 6.976562 -27.984375 10.132812 -29.34375 14.03125 -29.34375 C 16.289062 -29.34375 18.359375 -28.976562 20.234375 -28.25 C 22.109375 -27.53125 23.664062 -26.554688 24.90625 -25.328125 L 24.90625 -19.515625 L 20.625 -19.515625 L 19.8125 -23.390625 C 19.28125 -23.835938 18.578125 -24.195312 17.703125 -24.46875 C 16.835938 -24.738281 15.84375 -24.875 14.71875 -24.875 C 12.1875 -24.875 10.21875 -23.9375 8.8125 -22.0625 C 7.414062 -20.195312 6.71875 -17.753906 6.71875 -14.734375 L 6.71875 -13.703125 C 6.71875 -10.765625 7.40625 -8.414062 8.78125 -6.65625 C 10.15625 -4.90625 12.140625 -4.03125 14.734375 -4.03125 C 15.898438 -4.03125 16.84375 -4.128906 17.5625 -4.328125 C 18.289062 -4.523438 18.859375 -4.757812 19.265625 -5.03125 L 19.265625 -9.9375 L 15.140625 -10.25 L 15.140625 -14.328125 L 25.09375 -14.328125 Z M 25.09375 -3.21875 "/></g></g></g><g fill="#ffffff" fill-opacity="1"><g transform="translate(139.394014, 322.557576)"><g><path d="M 11.3125 -5.640625 C 11.3125 -4.773438 11.160156 -3.953125 10.859375 -3.171875 C 10.566406 -2.398438 10.128906 -1.738281 9.546875 -1.1875 L 11.90625 0.9375 L 10.140625 2.515625 L 7.421875 0.015625 C 7.203125 0.0664062 6.972656 0.109375 6.734375 0.140625 C 6.492188 0.179688 6.242188 0.203125 5.984375 0.203125 C 5.160156 0.203125 4.429688 0.046875 3.796875 -0.265625 C 3.160156 -0.585938 2.617188 -1.019531 2.171875 -1.5625 C 1.734375 -2.101562 1.398438 -2.722656 1.171875 -3.421875 C 0.941406 -4.128906 0.828125 -4.867188 0.828125 -5.640625 L 0.828125 -8.109375 C 0.828125 -9.035156 0.941406 -9.882812 1.171875 -10.65625 C 1.398438 -11.425781 1.734375 -12.09375 2.171875 -12.65625 C 2.617188 -13.21875 3.160156 -13.65625 3.796875 -13.96875 C 4.429688 -14.289062 5.160156 -14.453125 5.984375 -14.453125 C 6.816406 -14.453125 7.5625 -14.289062 8.21875 -13.96875 C 8.882812 -13.65625 9.441406 -13.21875 9.890625 -12.65625 C 10.347656 -12.09375 10.695312 -11.425781 10.9375 -10.65625 C 11.1875 -9.882812 11.3125 -9.035156 11.3125 -8.109375 Z M 8.53125 -8.140625 C 8.53125 -8.722656 8.476562 -9.257812 8.375 -9.75 C 8.28125 -10.25 8.132812 -10.675781 7.9375 -11.03125 C 7.738281 -11.382812 7.476562 -11.660156 7.15625 -11.859375 C 6.832031 -12.066406 6.441406 -12.171875 5.984375 -12.171875 C 5.535156 -12.171875 5.160156 -12.066406 4.859375 -11.859375 C 4.554688 -11.660156 4.3125 -11.382812 4.125 -11.03125 C 3.945312 -10.675781 3.816406 -10.25 3.734375 -9.75 C 3.660156 -9.257812 3.625 -8.722656 3.625 -8.140625 L 3.625 -5.640625 C 3.625 -5.203125 3.660156 -4.769531 3.734375 -4.34375 C 3.816406 -3.914062 3.945312 -3.53125 4.125 -3.1875 C 4.3125 -2.851562 4.554688 -2.582031 4.859375 -2.375 C 5.160156 -2.164062 5.535156 -2.0625 5.984375 -2.0625 C 6.441406 -2.0625 6.832031 -2.164062 7.15625 -2.375 C 7.476562 -2.582031 7.738281 -2.851562 7.9375 -3.1875 C 8.132812 -3.53125 8.28125 -3.914062 8.375 -4.34375 C 8.476562 -4.769531 8.53125 -5.203125 8.53125 -5.640625 Z M 8.53125 -8.140625 "/></g></g></g><g fill="#ffffff" fill-opacity="1"><g transform="translate(167.455007, 322.557576)"><g><path d="M 10.78125 -14.25 L 10.78125 -4.8125 C 10.78125 -4.007812 10.671875 -3.296875 10.453125 -2.671875 C 10.234375 -2.054688 9.914062 -1.535156 9.5 -1.109375 C 9.09375 -0.679688 8.585938 -0.351562 7.984375 -0.125 C 7.390625 0.09375 6.710938 0.203125 5.953125 0.203125 C 5.234375 0.203125 4.582031 0.09375 4 -0.125 C 3.425781 -0.351562 2.929688 -0.679688 2.515625 -1.109375 C 2.109375 -1.535156 1.789062 -2.054688 1.5625 -2.671875 C 1.34375 -3.296875 1.234375 -4.007812 1.234375 -4.8125 L 1.25 -14.25 L 4 -14.25 L 4 -4.8125 C 4.007812 -3.882812 4.175781 -3.1875 4.5 -2.71875 C 4.832031 -2.25 5.316406 -2.015625 5.953125 -2.015625 C 6.617188 -2.015625 7.128906 -2.25 7.484375 -2.71875 C 7.847656 -3.1875 8.03125 -3.882812 8.03125 -4.8125 L 8.046875 -14.25 Z M 10.78125 -14.25 "/></g></g></g><g fill="#ffffff" fill-opacity="1"><g transform="translate(195.516001, 322.557576)"><g><path d="M 1.890625 -14.25 L 10.125 -14.25 L 10.125 -12.03125 L 7.34375 -12.03125 L 7.34375 -2.21875 L 10.125 -2.21875 L 10.125 0 L 1.890625 0 L 1.890625 -2.21875 L 4.59375 -2.21875 L 4.59375 -12.03125 L 1.890625 -12.03125 Z M 1.890625 -14.25 "/></g></g></g><g fill="#ffffff" fill-opacity="1"><g transform="translate(223.576991, 322.557576)"><g><path d="M 4.21875 -2.21875 L 11.28125 -2.21875 L 11.28125 0 L 0.875 0 L 0.875 -1.6875 L 7.78125 -12.015625 L 0.890625 -12.015625 L 0.890625 -14.25 L 11.109375 -14.25 L 11.125 -12.625 Z M 4.21875 -2.21875 "/></g></g></g></svg>